<?xml version="1.0" encoding="utf-8"?>
<!-- Generator: Adobe Illustrator 22.0.1, SVG Export Plug-In . SVG Version: 6.00 Build 0)  -->
<svg version="1.1" id="Capa_1" xmlns="http://www.w3.org/2000/svg" xmlns:xlink="http://www.w3.org/1999/xlink" x="0px" y="0px"
	 viewBox="0 0 493.2 493.2" style="enable-background:new 0 0 493.2 493.2;" xml:space="preserve">
<style type="text/css">
	.st0{fill:#08654B;}
</style>
<g>
	<g>
		<path class="st0" d="M487.4,454.1C487.4,454.1,487.4,454.1,487.4,454.1L367.3,5.9c-1.1-4.3-5.5-6.8-9.8-5.7l-108.2,29
			c-1.5,0.4-2.8,1.3-3.8,2.5V14.6c0-4.4-3.6-8-8-8h-224c-4.4,0-8,3.6-8,8v464c0,4.4,3.6,8,8,8h224c4.4,0,8-3.6,8-8V46l118.2,441.2
			c0.9,3.5,4.1,5.9,7.7,5.9c0.7,0,1.4-0.1,2-0.3l108.2-29C486,462.8,488.5,458.4,487.4,454.1z M117.5,470.6h-96v-448h96V470.6z
			 M229.5,470.6h-96v-448h96V470.6z M377.1,475.4L261.2,42.6l92.7-24.9l115.9,432.7L377.1,475.4z"/>
	</g>
</g>
<g>
	<g>
		<path class="st0" d="M93.5,54.6h-48c-4.4,0-8,3.6-8,8s3.6,8,8,8h48c4.4,0,8-3.6,8-8S97.9,54.6,93.5,54.6z"/>
	</g>
</g>
<g>
	<g>
		<path class="st0" d="M93.5,86.6h-48c-4.4,0-8,3.6-8,8s3.6,8,8,8h48c4.4,0,8-3.6,8-8S97.9,86.6,93.5,86.6z"/>
	</g>
</g>
<g>
	<g>
		<path class="st0" d="M205.5,54.6h-48c-4.4,0-8,3.6-8,8s3.6,8,8,8h48c4.4,0,8-3.6,8-8S209.9,54.6,205.5,54.6z"/>
	</g>
</g>
<g>
	<g>
		<path class="st0" d="M205.5,86.6h-48c-4.4,0-8,3.6-8,8s3.6,8,8,8h48c4.4,0,8-3.6,8-8S209.9,86.6,205.5,86.6z"/>
	</g>
</g>
<g>
	<g>
		<path class="st0" d="M349,60.7c-1-4.3-5.3-6.9-9.6-5.9c-0.1,0-0.3,0.1-0.4,0.1l-46.4,12.4c-4.3,1.1-6.8,5.5-5.7,9.8
			s5.5,6.8,9.8,5.7c0,0,0,0,0.1,0l46.4-12.4C347.4,69.3,350.1,65,349,60.7z"/>
	</g>
</g>
<g>
	<g>
		<path class="st0" d="M357.1,91.5c-1.1-4.3-5.5-6.8-9.8-5.7h0l-46.4,12.4c-4.3,1.1-6.8,5.5-5.7,9.8s5.5,6.8,9.8,5.7c0,0,0,0,0.1,0
			l46.4-12.4C355.7,100.1,358.3,95.8,357.1,91.5z"/>
	</g>
</g>
<g>
	<g>
		<path class="st0" d="M435.7,385.1c-1.2-4.2-5.5-6.7-9.7-5.6l-46.4,12.4c-4.3,1.1-6.8,5.5-5.7,9.8c0.9,3.5,4.1,5.9,7.7,5.9h0
			c0.7,0,1.4-0.1,2.1-0.3l46.4-12.4C434.4,393.8,436.9,389.4,435.7,385.1z"/>
	</g>
</g>
<g>
	<g>
		<path class="st0" d="M444.1,416c-1.2-4.2-5.5-6.7-9.7-5.6l-46.4,12.4c-4.3,1.1-6.8,5.5-5.7,9.8c0.9,3.5,4.1,5.9,7.7,5.9
			c0.7,0,1.4-0.1,2.1-0.3l46.4-12.4C442.7,424.7,445.2,420.3,444.1,416z"/>
	</g>
</g>
<g>
	<g>
		<path class="st0" d="M205.5,390.6h-48c-4.4,0-8,3.6-8,8s3.6,8,8,8h48c4.4,0,8-3.6,8-8S209.9,390.6,205.5,390.6z"/>
	</g>
</g>
<g>
	<g>
		<path class="st0" d="M205.5,422.6h-48c-4.4,0-8,3.6-8,8s3.6,8,8,8h48c4.4,0,8-3.6,8-8S209.9,422.6,205.5,422.6z"/>
	</g>
</g>
<g>
	<g>
		<path class="st0" d="M93.5,390.6h-48c-4.4,0-8,3.6-8,8s3.6,8,8,8h48c4.4,0,8-3.6,8-8S97.9,390.6,93.5,390.6z"/>
	</g>
</g>
<g>
	<g>
		<path class="st0" d="M93.5,422.6h-48c-4.4,0-8,3.6-8,8s3.6,8,8,8h48c4.4,0,8-3.6,8-8S97.9,422.6,93.5,422.6z"/>
	</g>
</g>
</svg>
